<?xml version="1.0" standalone="no"?>
<!DOCTYPE svg PUBLIC "-//W3C//DTD SVG 20010904//EN"
 "https://www.w3.org/TR/2001/REC-SVG-20010904/DTD/svg10.dtd">
<svg version="1.0" xmlns="http://www.w3.org/2000/svg"
 width="260.000000pt" height="260.000000pt" viewBox="0 0 260.000000 260.000000"
 preserveAspectRatio="xMidYMid meet">
<metadata>
Created by potrace 1.11, written by Peter Selinger 2001-2013
</metadata>
<g transform="translate(0.000000,260.000000) scale(0.100000,-0.100000)"
fill="#000000" stroke="none">
<path d="M250 1310 l0 -750 85 0 85 0 1 48 c1 26 1 50 0 55 -2 15 15 6 44 -24
16 -16 57 -44 92 -60 52 -26 76 -32 149 -34 108 -4 169 13 246 67 96 68 165
198 185 348 17 130 5 285 -29 385 -62 179 -184 279 -351 288 -124 7 -208 -20
-292 -95 l-35 -30 0 276 0 276 -90 0 -90 0 0 -750z m580 129 c88 -60 139 -200
134 -365 -8 -246 -105 -377 -279 -377 -82 0 -143 23 -191 75 -66 71 -64 61
-64 315 0 229 0 234 24 271 58 90 126 123 248 118 69 -2 83 -6 128 -37z"/>
<path d="M1940 1632 c-89 -8 -162 -45 -247 -126 l-43 -40 -1 52 c-1 29 -3 57
-4 62 -1 6 -3 16 -4 24 -1 10 -20 13 -78 12 l-78 -1 -3 -527 -2 -528 90 0 89
0 3 391 3 392 59 54 c87 78 186 102 298 72 59 -16 93 -42 117 -92 29 -60 30
-70 30 -464 l1 -353 90 0 90 0 0 378 c-1 408 -6 452 -56 539 -67 116 -192 171
-354 155z"/>
</g>
</svg>
